# File created by Blade
# Date/Time:  Wed Jan 21 15:15:22 2015
# Frame Rate: 120.000 fps
#------------------------------------------------------
:FULLY-SPECIFIED
:DEGREES
1382
root 17.697294 35.195099 -23.545465 45.242480 -88.394886 -35.788834
Spine -21.540782 -0.855287 1.004886
Head 8.306474 -1.409260 0.953411
LeftShoulder -13.949347 -35.129073 22.480082
LeftArm 1.171403 3.907825 -8.228712
LeftForeArm 10.578208 -0.000000 -2.709591
LeftHand -7.693032 -0.000000 -5.654928
LeftHandThumb1 -26.253704 0.000000 33.147579
RightShoulder -12.903620 -3.986909 -10.551408
RightArm 9.195735 34.287758 12.490817
RightForeArm -37.056083 -0.000000 4.572010
RightHand -7.907870 -0.000000 9.363889
RightHandThumb1 -24.326973 -0.000000 -32.862282
LeftUpLeg -0.839438 7.509273 4.974799
LeftLeg -5.847200 -0.000000 0.000000
LeftFoot -20.554861 25.133820 -13.496532
LeftToeBase 27.203247 -0.000000 -0.000000
RightUpLeg -0.597821 -6.762057 -3.542708
RightLeg -2.355550 -0.000000 0.000000
RightFoot -22.519845 -22.336951 17.537489
RightToeBase 23.854261 -0.000000 -0.000000
1383
root 17.695159 35.194529 -23.550299 46.095406 -88.411202 -36.630284
Spine -21.546896 -0.845170 0.990498
Head 8.301182 -1.389948 0.954969
LeftShoulder -13.966460 -35.127986 22.493401
LeftArm 1.175386 3.923827 -8.197792
LeftForeArm 10.591790 0.000000 -2.713118
LeftHand -7.690565 -0.000000 -5.686557
LeftHandThumb1 -26.253704 0.000000 33.147579
RightShoulder -12.901269 -4.006804 -10.545801
RightArm 9.209452 34.302787 12.510092
RightForeArm -37.046761 -0.000000 4.560507
RightHand -7.834384 -0.000000 9.387984
RightHandThumb1 -24.326973 -0.000000 -32.862282
LeftUpLeg -0.847484 7.534673 4.987875
LeftLeg -5.835087 -0.000000 0.000000
LeftFoot -20.578342 25.126337 -13.506464
LeftToeBase 27.204850 -0.000000 -0.000000
RightUpLeg -0.611870 -6.737773 -3.531820
RightLeg -2.354244 -0.000000 0.000000
RightFoot -22.518808 -22.306366 17.555364
RightToeBase 23.836859 -0.000000 -0.000000
1384
root 17.693459 35.194161 -23.555513 47.130304 -88.417909 -37.646152
Spine -21.557896 -0.830271 0.986177
Head 8.285051 -1.369235 0.952879
LeftShoulder -13.994195 -35.122547 22.508113
LeftArm 1.197058 3.914607 -8.176376
LeftForeArm 10.610383 -0.000000 -2.724296
LeftHand -7.692510 0.000000 -5.691787
LeftHandThumb1 -26.253704 0.000000 33.147579
RightShoulder -12.920613 -4.021807 -10.540830
RightArm 9.247792 34.323173 12.543170
RightForeArm -37.059568 0.000000 4.560398
RightHand -7.900369 -0.000000 9.414010
RightHandThumb1 -24.326973 -0.000000 -32.862282
LeftUpLeg -0.863793 7.549897 5.009930
LeftLeg -5.825390 -0.000000 0.000000
LeftFoot -20.588680 25.141205 -13.509633
LeftToeBase 27.213682 -0.000000 -0.000000
RightUpLeg -0.635925 -6.736812 -3.506679
RightLeg -2.346784 -0.000000 0.000000
RightFoot -22.507721 -22.294999 17.509816
RightToeBase 23.802245 -0.000000 -0.000000
1385
root 17.692234 35.193595 -23.560597 48.345755 -88.432863 -38.841396
Spine -21.573392 -0.804636 0.976624
Head 8.280407 -1.341721 0.959808
LeftShoulder -13.997194 -35.123306 22.514183
LeftArm 1.194315 3.888591 -8.143538
LeftForeArm 10.635356 -0.000000 -2.731620
LeftHand -7.681909 -0.000000 -5.698790
LeftHandThumb1 -26.253704 0.000000 33.147579
RightShoulder -12.914193 -4.008328 -10.540591
RightArm 9.224436 34.325926 12.542423
RightForeArm -37.059548 -0.000000 4.586531
RightHand -7.890831 -0.000000 9.440146
RightHandThumb1 -24.326973 -0.000000 -32.862282
LeftUpLeg -0.874850 7.564909 5.028650
LeftLeg -5.826843 -0.000000 0.000000
LeftFoot -20.605148 25.163210 -13.514961
LeftToeBase 27.204585 -0.000000 -0.000000
RightUpLeg -0.663966 -6.729921 -3.485072
RightLeg -2.339263 -0.000000 0.000000
RightFoot -22.505587 -22.258215 17.515534
RightToeBase 23.828071 -0.000000 -0.000000
